<svg xmlns="http://www.w3.org/2000/svg" xmlns:xlink="http://www.w3.org/1999/xlink" viewBox="0 0 45.5 77.46"><defs><style>.cls-1{isolation:isolate;}.cls-2{fill:url(#Áåçûìÿííûé_ãðàäèåíò_32);}.cls-3{fill:#43566c;}.cls-4{fill:url(#Áåçûìÿííûé_ãðàäèåíò_99);}.cls-5{fill:#36477b;}.cls-6{fill:url(#Áåçûìÿííûé_ãðàäèåíò_32-2);}.cls-7{fill:url(#Áåçûìÿííûé_ãðàäèåíò_76);}.cls-8{fill:url(#Áåçûìÿííûé_ãðàäèåíò_32-3);}.cls-9{fill:url(#Áåçûìÿííûé_ãðàäèåíò_99-2);}.cls-10{fill:url(#Áåçûìÿííûé_ãðàäèåíò_32-4);}.cls-11{fill:#2d3c48;}.cls-12{fill:#383838;mix-blend-mode:screen;}.cls-13{fill:url(#Áåçûìÿííûé_ãðàäèåíò_103);}.cls-14{fill:#13161a;}.cls-15{fill:url(#Áåçûìÿííûé_ãðàäèåíò_114);}.cls-16{fill:url(#Áåçûìÿííûé_ãðàäèåíò_103-2);}.cls-17{fill:url(#Áåçûìÿííûé_ãðàäèåíò_114-2);}.cls-18{fill:url(#Áåçûìÿííûé_ãðàäèåíò_103-3);}.cls-19{fill:url(#Áåçûìÿííûé_ãðàäèåíò_114-3);}.cls-20{fill:url(#Áåçûìÿííûé_ãðàäèåíò_103-4);}.cls-21{fill:url(#Áåçûìÿííûé_ãðàäèåíò_114-4);}</style><linearGradient id="Áåçûìÿííûé_ãðàäèåíò_32" x1="875.21" y1="412.52" x2="920.71" y2="412.52" gradientTransform="translate(-205.36)" gradientUnits="userSpaceOnUse"><stop offset="0.13" stop-color="#13161a"/><stop offset="0.14" stop-color="#232d39"/><stop offset="0.47" stop-color="#232d39"/><stop offset="0.48" stop-color="#2d3c48"/><stop offset="0.88" stop-color="#2d3c48"/><stop offset="0.88" stop-color="#232d39"/></linearGradient><linearGradient id="Áåçûìÿííûé_ãðàäèåíò_99" x1="876.33" y1="400.96" x2="919.58" y2="400.96" gradientTransform="translate(-205.36)" gradientUnits="userSpaceOnUse"><stop offset="0.18" stop-color="#025ca0"/><stop offset="0.18" stop-color="#007cff"/><stop offset="0.47" stop-color="#007cff"/><stop offset="0.48" stop-color="#4ea4ff"/><stop offset="0.81" stop-color="#4ea4ff"/><stop offset="0.82" stop-color="#007cff"/></linearGradient><linearGradient id="Áåçûìÿííûé_ãðàäèåíò_32-2" x1="875.21" y1="398.13" x2="920.71" y2="398.13" xlink:href="#Áåçûìÿííûé_ãðàäèåíò_32"/><linearGradient id="Áåçûìÿííûé_ãðàäèåíò_76" x1="876.33" y1="386.48" x2="919.58" y2="386.48" gradientTransform="translate(-205.36)" gradientUnits="userSpaceOnUse"><stop offset="0.13" stop-color="#ee9b0f"/><stop offset="0.14" stop-color="#ffb901"/><stop offset="0.47" stop-color="#ffb901"/><stop offset="0.48" stop-color="#fad020"/><stop offset="0.88" stop-color="#fad020"/><stop offset="0.88" stop-color="#ffb901"/></linearGradient><linearGradient id="Áåçûìÿííûé_ãðàäèåíò_32-3" x1="875.21" y1="383.65" x2="920.71" y2="383.65" xlink:href="#Áåçûìÿííûé_ãðàäèåíò_32"/><linearGradient id="Áåçûìÿííûé_ãðàäèåíò_99-2" x1="876.33" y1="372.14" x2="919.58" y2="372.14" xlink:href="#Áåçûìÿííûé_ãðàäèåíò_99"/><linearGradient id="Áåçûìÿííûé_ãðàäèåíò_32-4" x1="875.21" y1="369.31" x2="920.71" y2="369.31" xlink:href="#Áåçûìÿííûé_ãðàäèåíò_32"/><linearGradient id="Áåçûìÿííûé_ãðàäèåíò_103" x1="661.56" y1="372.42" x2="663.28" y2="375.42" gradientTransform="matrix(-1, 0, 0, 1, 1366.45, 0)" gradientUnits="userSpaceOnUse"><stop offset="0.12" stop-color="#161c24"/><stop offset="0.12" stop-color="#202b33"/><stop offset="0.52" stop-color="#202b33"/><stop offset="0.53" stop-color="#161c24"/><stop offset="0.86" stop-color="#161c24"/><stop offset="0.87" stop-color="#13161a"/></linearGradient><radialGradient id="Áåçûìÿííûé_ãðàäèåíò_114" cx="574.09" cy="373.39" r="1.36" gradientTransform="matrix(-1, 0, 0, 1, 1278.68, 0)" gradientUnits="userSpaceOnUse"><stop offset="0" stop-color="#b3ff0e"/><stop offset="1" stop-color="#7fb50a"/></radialGradient><linearGradient id="Áåçûìÿííûé_ãðàäèåíò_103-2" x1="661.56" y1="386.76" x2="663.28" y2="389.75" xlink:href="#Áåçûìÿííûé_ãðàäèåíò_103"/><radialGradient id="Áåçûìÿííûé_ãðàäèåíò_114-2" cx="573.79" cy="387.91" r="1.2" xlink:href="#Áåçûìÿííûé_ãðàäèåíò_114"/><linearGradient id="Áåçûìÿííûé_ãðàäèåíò_103-3" x1="661.75" y1="401.32" x2="663.47" y2="404.31" xlink:href="#Áåçûìÿííûé_ãðàäèåíò_103"/><radialGradient id="Áåçûìÿííûé_ãðàäèåíò_114-3" cx="573.98" cy="402.39" r="1.2" xlink:href="#Áåçûìÿííûé_ãðàäèåíò_114"/><linearGradient id="Áåçûìÿííûé_ãðàäèåíò_103-4" x1="661.56" y1="416.01" x2="663.28" y2="419" xlink:href="#Áåçûìÿííûé_ãðàäèåíò_103"/><radialGradient id="Áåçûìÿííûé_ãðàäèåíò_114-4" cx="573.69" cy="416.95" r="1.2" xlink:href="#Áåçûìÿííûé_ãðàäèåíò_114"/></defs><title>data</title><g class="cls-1"><g id="Layer_1" data-name="Layer 1"><path class="cls-2" d="M715.34,401.8v8.57a5.32,5.32,0,0,1-.16,1.43c-1.2,6.45-10.89,11.43-22.57,11.43a39.09,39.09,0,0,1-7.08-.63c-8.29-1.53-14.48-5.65-15.49-10.73a7.12,7.12,0,0,1-.16-1.47l0-4.5v-4h5.58l10.1,0,24.19,0Z" transform="translate(-669.85 -345.77)"/><path class="cls-3" d="M715.34,401.8a7.13,7.13,0,0,1-.79,3.3c-1.4,3.11-4.83,5.75-9.46,7.46a36,36,0,0,1-12.48,2.13,39.09,39.09,0,0,1-7.08-.63,29.37,29.37,0,0,1-5.4-1.5c-4.63-1.71-8.06-4.35-9.49-7.43a7.33,7.33,0,0,1-.79-3.27c0-5.71,6.57-10.54,15.68-12.25a39,39,0,0,1,7.05-.64C705.15,389,715.34,394.72,715.34,401.8Z" transform="translate(-669.85 -345.77)"/><path class="cls-4" d="M714.22,389.88v9.94a5.25,5.25,0,0,1-.15,1.36c-1.15,6.13-10.35,10.87-21.46,10.87a37.09,37.09,0,0,1-6.73-.61c-7.88-1.45-13.77-5.37-14.73-10.2a7,7,0,0,1-.15-1.39l0-6.08v-3.83h5.31l9.6,0,23,0Z" transform="translate(-669.85 -345.77)"/><path class="cls-5" d="M714.22,389.88a6.78,6.78,0,0,1-.75,3.13c-1.33,3-4.59,5.47-9,7.1a34.29,34.29,0,0,1-11.86,2,37.11,37.11,0,0,1-6.73-.6,29.31,29.31,0,0,1-5.13-1.42c-4.41-1.63-7.67-4.14-9-7.07a7,7,0,0,1-.75-3.1c0-5.44,6.24-10,14.91-11.66a37,37,0,0,1,6.7-.6C704.53,377.68,714.22,383.14,714.22,389.88Z" transform="translate(-669.85 -345.77)"/><path class="cls-6" d="M715.34,387.41V396a5.41,5.41,0,0,1-.16,1.43c-1.2,6.44-10.89,11.43-22.57,11.43a39.08,39.08,0,0,1-7.08-.64c-8.29-1.52-14.48-5.65-15.49-10.73a7,7,0,0,1-.16-1.46l0-4.51v-4h5.58l10.1,0,24.19,0Z" transform="translate(-669.85 -345.77)"/><path class="cls-3" d="M715.34,387.41a7.14,7.14,0,0,1-.79,3.31c-1.4,3.11-4.83,5.74-9.46,7.46a36.29,36.29,0,0,1-12.48,2.12,39.09,39.09,0,0,1-7.08-.63,30.18,30.18,0,0,1-5.4-1.49c-4.63-1.72-8.06-4.35-9.49-7.43a7.39,7.39,0,0,1-.79-3.27c0-5.72,6.57-10.54,15.68-12.26a39,39,0,0,1,7.05-.63C705.15,374.59,715.34,380.33,715.34,387.41Z" transform="translate(-669.85 -345.77)"/><path class="cls-7" d="M714.22,375.39v9.95a5.3,5.3,0,0,1-.15,1.36c-1.15,6.12-10.35,10.86-21.46,10.86a37.11,37.11,0,0,1-6.73-.6c-7.88-1.45-13.77-5.37-14.73-10.2a7.13,7.13,0,0,1-.15-1.39l0-6.08v-3.84h5.31l9.6,0,23,0Z" transform="translate(-669.85 -345.77)"/><path class="cls-5" d="M714.22,375.39a6.79,6.79,0,0,1-.75,3.14c-1.33,3-4.59,5.47-9,7.1a34.53,34.53,0,0,1-11.86,2,36.22,36.22,0,0,1-6.73-.61,28.47,28.47,0,0,1-5.13-1.41c-4.41-1.63-7.67-4.14-9-7.07a7.05,7.05,0,0,1-.75-3.11c0-5.43,6.24-10,14.91-11.65a37,37,0,0,1,6.7-.6C704.53,363.2,714.22,368.66,714.22,375.39Z" transform="translate(-669.85 -345.77)"/><path class="cls-8" d="M715.34,372.93v8.57a5.32,5.32,0,0,1-.16,1.43c-1.2,6.45-10.89,11.43-22.57,11.43a39.09,39.09,0,0,1-7.08-.63c-8.29-1.53-14.48-5.65-15.49-10.73a7.1,7.1,0,0,1-.16-1.46l0-4.51v-4h5.58l10.1,0,24.19,0Z" transform="translate(-669.85 -345.77)"/><path class="cls-3" d="M715.34,372.93a7.1,7.1,0,0,1-.79,3.3c-1.4,3.11-4.83,5.75-9.46,7.46a36,36,0,0,1-12.48,2.13,39.09,39.09,0,0,1-7.08-.63,29.37,29.37,0,0,1-5.4-1.5c-4.63-1.71-8.06-4.35-9.49-7.42a7.4,7.4,0,0,1-.79-3.28c0-5.71,6.57-10.54,15.68-12.25a39,39,0,0,1,7.05-.64C705.15,360.1,715.34,365.85,715.34,372.93Z" transform="translate(-669.85 -345.77)"/><path class="cls-9" d="M714.22,361.06V371a5.25,5.25,0,0,1-.15,1.36c-1.15,6.13-10.35,10.87-21.46,10.87a37.09,37.09,0,0,1-6.73-.61c-7.88-1.45-13.77-5.37-14.73-10.2A7,7,0,0,1,671,371l0-6.08v-3.83h5.31l9.6,0,23,0Z" transform="translate(-669.85 -345.77)"/><path class="cls-5" d="M714.22,361.06a6.85,6.85,0,0,1-.75,3.14c-1.33,2.95-4.59,5.46-9,7.09a34.29,34.29,0,0,1-11.86,2,37.11,37.11,0,0,1-6.73-.6,28.47,28.47,0,0,1-5.13-1.42c-4.41-1.63-7.67-4.14-9-7.06a7.12,7.12,0,0,1-.75-3.11c0-5.44,6.24-10,14.91-11.65a36.13,36.13,0,0,1,6.7-.61C704.53,348.86,714.22,354.33,714.22,361.06Z" transform="translate(-669.85 -345.77)"/><path class="cls-10" d="M715.34,358.6v8.57a5.41,5.41,0,0,1-.16,1.43C714,375,704.29,380,692.61,380a39.08,39.08,0,0,1-7.08-.64c-8.29-1.52-14.48-5.65-15.49-10.73a7,7,0,0,1-.16-1.46l0-4.51v-4h5.58l10.1,0,24.19,0Z" transform="translate(-669.85 -345.77)"/><path class="cls-3" d="M715.34,358.6a7.13,7.13,0,0,1-.79,3.3c-1.4,3.11-4.83,5.74-9.46,7.46a36.28,36.28,0,0,1-12.48,2.13,39.08,39.08,0,0,1-7.08-.64,30.18,30.18,0,0,1-5.4-1.49c-4.63-1.72-8.06-4.35-9.49-7.43a7.39,7.39,0,0,1-.79-3.27c0-5.72,6.57-10.54,15.68-12.26a39,39,0,0,1,7.05-.63C705.15,345.77,715.34,351.52,715.34,358.6Z" transform="translate(-669.85 -345.77)"/><path class="cls-11" d="M692.61,366.21a33,33,0,0,0,11.32-1.92c3.84-1.42,6.6-3.5,7.6-5.72l.07-.16a3.75,3.75,0,0,0,.43-1.78c0-4.5-8-9.52-19.45-9.52a35.82,35.82,0,0,0-6.45.58c-7.51,1.42-13,5.2-13,9a4.16,4.16,0,0,0,.46,1.83c1,2.27,3.84,4.35,7.66,5.76a26.37,26.37,0,0,0,4.84,1.34A35.29,35.29,0,0,0,692.61,366.21Z" transform="translate(-669.85 -345.77)"/><path class="cls-3" d="M692.61,365.38a32.13,32.13,0,0,0,11-1.87c3.62-1.34,6.22-3.26,7.12-5.28l.09-.18a3,3,0,0,0,.34-1.42c0-3.63-7.08-8.69-18.62-8.69a34.07,34.07,0,0,0-6.29.57c-7,1.32-12.3,4.84-12.3,8.18a3.24,3.24,0,0,0,.38,1.46c1,2.07,3.58,4,7.2,5.36a26.35,26.35,0,0,0,4.69,1.3A34.72,34.72,0,0,0,692.61,365.38Z" transform="translate(-669.85 -345.77)"/><path class="cls-12" d="M714.55,360c-1.4,3.12-4.83,5.75-9.46,7.47a36.29,36.29,0,0,1-12.48,2.12,39.09,39.09,0,0,1-7.08-.63,30.18,30.18,0,0,1-5.4-1.49c-4.63-1.72-8.06-4.35-9.49-7.43a7.9,7.9,0,0,1-.67-2.24,8.85,8.85,0,0,0-.12.9,7.39,7.39,0,0,0,.79,3.27c1.43,3.08,4.86,5.71,9.49,7.43a30.18,30.18,0,0,0,5.4,1.49,39.08,39.08,0,0,0,7.08.64,36.28,36.28,0,0,0,12.48-2.13c4.63-1.72,8.06-4.35,9.46-7.46a7.13,7.13,0,0,0,.79-3.3,7.88,7.88,0,0,0-.09-1.09A7.15,7.15,0,0,1,714.55,360Z" transform="translate(-669.85 -345.77)"/><path class="cls-13" d="M703,375.32l.63.41.08-.12a2.08,2.08,0,0,0,1.36-1.12,2.54,2.54,0,0,0,.37-1.24,1.1,1.1,0,0,0-.13-.59v-.07l-.61-.4h0c-.49-.19-1.22.27-1.69,1.08a2.88,2.88,0,0,0-.36,1.07A1,1,0,0,0,703,375.32Z" transform="translate(-669.85 -345.77)"/><path class="cls-14" d="M703.55,375.69c.49.28,1.28-.19,1.77-1s.5-1.78,0-2-1.27.18-1.77,1S703.07,375.41,703.55,375.69Z" transform="translate(-669.85 -345.77)"/><path class="cls-15" d="M703.87,375.52a1.74,1.74,0,0,0,1.24-1c.45-.78.42-1.53.11-1.71a.42.42,0,0,0-.2-.05,1.76,1.76,0,0,0-1.23,1c-.45.79-.42,1.54-.11,1.72A.38.38,0,0,0,703.87,375.52Z" transform="translate(-669.85 -345.77)"/><path class="cls-16" d="M703,389.65l.63.42.08-.12a2.14,2.14,0,0,0,1.36-1.12,2.54,2.54,0,0,0,.37-1.24,1.05,1.05,0,0,0-.13-.59v-.07l-.61-.41h0c-.49-.19-1.22.27-1.69,1.08a2.82,2.82,0,0,0-.36,1.07A1,1,0,0,0,703,389.65Z" transform="translate(-669.85 -345.77)"/><path class="cls-14" d="M703.55,390c.49.28,1.28-.19,1.77-1s.5-1.77,0-2.05-1.27.19-1.77,1.05S703.07,389.75,703.55,390Z" transform="translate(-669.85 -345.77)"/><path class="cls-17" d="M703.87,389.86a1.74,1.74,0,0,0,1.24-1c.45-.79.42-1.53.11-1.71a.42.42,0,0,0-.2,0,1.73,1.73,0,0,0-1.23,1c-.45.78-.42,1.53-.11,1.71A.38.38,0,0,0,703.87,389.86Z" transform="translate(-669.85 -345.77)"/><path class="cls-18" d="M702.81,404.21l.64.41.07-.12a2.07,2.07,0,0,0,1.37-1.12,2.62,2.62,0,0,0,.37-1.24,1.2,1.2,0,0,0-.13-.59v-.07l-.6-.4h0c-.49-.19-1.22.27-1.69,1.08a2.61,2.61,0,0,0-.36,1.07A1,1,0,0,0,702.81,404.21Z" transform="translate(-669.85 -345.77)"/><path class="cls-14" d="M703.36,404.58c.49.28,1.28-.18,1.77-1s.5-1.77,0-2.05-1.28.19-1.77,1S702.88,404.31,703.36,404.58Z" transform="translate(-669.85 -345.77)"/><path class="cls-19" d="M703.68,404.42a1.74,1.74,0,0,0,1.23-1c.46-.79.42-1.54.11-1.71a.3.3,0,0,0-.19,0,1.72,1.72,0,0,0-1.23,1c-.46.78-.42,1.53-.11,1.71A.38.38,0,0,0,703.68,404.42Z" transform="translate(-669.85 -345.77)"/><path class="cls-20" d="M703,418.9l.63.42.08-.12a2.11,2.11,0,0,0,1.36-1.12,2.54,2.54,0,0,0,.37-1.24,1.08,1.08,0,0,0-.13-.59v-.07l-.61-.41h0c-.49-.19-1.22.27-1.69,1.08a2.82,2.82,0,0,0-.36,1.07A1,1,0,0,0,703,418.9Z" transform="translate(-669.85 -345.77)"/><path class="cls-14" d="M703.55,419.28c.49.28,1.28-.19,1.77-1s.5-1.78,0-2.06-1.27.19-1.77,1.05S703.07,419,703.55,419.28Z" transform="translate(-669.85 -345.77)"/><path class="cls-21" d="M703.87,419.11a1.74,1.74,0,0,0,1.24-1c.45-.78.42-1.53.11-1.71a.42.42,0,0,0-.2,0,1.73,1.73,0,0,0-1.23,1c-.45.79-.42,1.53-.11,1.71A.38.38,0,0,0,703.87,419.11Z" transform="translate(-669.85 -345.77)"/></g></g></svg>