<svg id="Layer_1" data-name="Layer 1" xmlns="http://www.w3.org/2000/svg" viewBox="0 0 74.6 63.32"><defs><style>.cls-1{fill:#d7e0e9;}.cls-2{fill:#e6e6e6;}</style></defs><title>notTrained</title><rect class="cls-1" x="651.12" y="361.56" width="32.32" height="0.53" transform="matrix(0.97, -0.25, 0.25, 0.97, -715.06, -174.18)"/><rect class="cls-1" x="646.7" y="370.86" width="41.15" height="0.53" transform="translate(-726.55 170.94) rotate(-40.61)"/><rect class="cls-1" x="667.17" y="358.72" width="0.53" height="41.89" transform="translate(-702.99 280.56) rotate(-48.93)"/><rect class="cls-1" x="667.17" y="354.02" width="0.53" height="33.12" transform="translate(-533.15 542.05) rotate(-72.42)"/><rect class="cls-1" x="650.46" y="397.99" width="33.48" height="0.53" transform="translate(-732.57 -142.07) rotate(-16.87)"/><rect class="cls-1" x="667.17" y="377.18" width="0.53" height="41.39" transform="translate(-713.29 297.06) rotate(-49.73)"/><rect class="cls-1" x="646.04" y="389.08" width="42.01" height="0.53" transform="translate(-737.56 180.04) rotate(-40.98)"/><rect class="cls-1" x="667.01" y="372.4" width="0.53" height="32.71" transform="translate(-545.55 560.09) rotate(-72.97)"/><rect class="cls-1" x="666.78" y="390.79" width="0.53" height="32.77" transform="translate(-538.97 599.12) rotate(-75.6)"/><rect class="cls-1" x="651.02" y="379.78" width="32.52" height="0.53" transform="translate(-724.3 -155.46) rotate(-15.9)"/><rect class="cls-1" x="697.12" y="351.64" width="0.53" height="38.97" transform="translate(-696.96 270.5) rotate(-46.64)"/><rect class="cls-1" x="696.97" y="365.05" width="0.53" height="29.99" transform="translate(-518.65 579.89) rotate(-72.7)"/><rect class="cls-1" x="682.54" y="388.69" width="29.7" height="0.53" transform="translate(-730.46 -124.78) rotate(-17.53)"/><rect class="cls-1" x="677.76" y="397.43" width="38.94" height="0.53" transform="translate(-730.81 224.39) rotate(-42.62)"/><path class="cls-2" d="M657.59,365.72a5.94,5.94,0,0,0-5.94-5.94h0a5.94,5.94,0,0,0-5.95,5.94h0a6,6,0,0,0,5.95,5.95h0a5.94,5.94,0,0,0,5.94-5.95Z" transform="translate(-645.7 -352.84)"/><path class="cls-2" d="M657.59,384.5a5.94,5.94,0,0,0-5.94-5.94h0a5.94,5.94,0,0,0-5.95,5.94h0a5.94,5.94,0,0,0,5.95,5.94h0a5.94,5.94,0,0,0,5.94-5.94Z" transform="translate(-645.7 -352.84)"/><path class="cls-2" d="M657.59,403.1a5.94,5.94,0,0,0-5.94-5.94h0a5.94,5.94,0,0,0-5.95,5.94h0a5.94,5.94,0,0,0,5.95,5.94h0a5.94,5.94,0,0,0,5.94-5.94Z" transform="translate(-645.7 -352.84)"/><path class="cls-2" d="M720.3,384.5a8.75,8.75,0,0,0-8.75-8.75h0a8.75,8.75,0,0,0-8.75,8.75h0a8.75,8.75,0,0,0,8.75,8.75h0a8.75,8.75,0,0,0,8.75-8.75Z" transform="translate(-645.7 -352.84)"/><path class="cls-2" d="M687.82,375.58a4.9,4.9,0,0,0-4.9-4.91h0a4.91,4.91,0,0,0-4.91,4.91h0a4.91,4.91,0,0,0,4.91,4.91h0a4.9,4.9,0,0,0,4.9-4.91Z" transform="translate(-645.7 -352.84)"/><path class="cls-2" d="M687.82,357.75a4.9,4.9,0,0,0-4.9-4.91h0a4.91,4.91,0,0,0-4.91,4.91h0a4.9,4.9,0,0,0,4.91,4.9h0a4.9,4.9,0,0,0,4.9-4.9Z" transform="translate(-645.7 -352.84)"/><path class="cls-2" d="M687.82,393.42a4.9,4.9,0,0,0-4.9-4.91h0a4.91,4.91,0,0,0-4.91,4.91h0a4.91,4.91,0,0,0,4.91,4.91h0a4.9,4.9,0,0,0,4.9-4.91Z" transform="translate(-645.7 -352.84)"/><path class="cls-2" d="M687.82,411.25a4.9,4.9,0,0,0-4.9-4.91h0a4.91,4.91,0,0,0-4.91,4.91h0a4.91,4.91,0,0,0,4.91,4.91h0a4.9,4.9,0,0,0,4.9-4.91Z" transform="translate(-645.7 -352.84)"/></svg>