<svg id="Layer_1" data-name="Layer 1" xmlns="http://www.w3.org/2000/svg" xmlns:xlink="http://www.w3.org/1999/xlink" viewBox="0 0 58.02 50.58"><defs><style>.cls-1{fill:url(#Degradado_sin_nombre_35);}.cls-2{fill:url(#Degradado_sin_nombre_35-2);}.cls-3{fill:url(#Degradado_sin_nombre_35-3);}.cls-4{fill:url(#Degradado_sin_nombre_35-4);}.cls-5{fill:url(#Degradado_sin_nombre_35-5);}.cls-6{fill:url(#Degradado_sin_nombre_35-6);}.cls-7{fill:url(#Degradado_sin_nombre_35-7);}.cls-8{fill:url(#Degradado_sin_nombre_35-8);}.cls-9{fill:url(#Degradado_sin_nombre_35-9);}.cls-10{fill:url(#Degradado_sin_nombre_35-10);}.cls-11{fill:url(#Degradado_sin_nombre_35-11);}.cls-12{fill:url(#Degradado_sin_nombre_35-12);}.cls-13{fill:url(#Degradado_sin_nombre_35-13);}.cls-14{fill:url(#Degradado_sin_nombre_35-14);}.cls-15{fill:url(#Degradado_sin_nombre_35-15);}.cls-16{fill:url(#Degradado_sin_nombre_35-16);}.cls-17{fill:url(#Degradado_sin_nombre_35-17);}.cls-18{fill:url(#Degradado_sin_nombre_35-18);}.cls-19{fill:url(#Degradado_sin_nombre_35-19);}.cls-20{fill:url(#Degradado_sin_nombre_35-20);}.cls-21{fill:url(#Degradado_sin_nombre_35-21);}.cls-22{fill:url(#Degradado_sin_nombre_35-22);}</style><linearGradient id="Degradado_sin_nombre_35" x1="4.57" y1="7.18" x2="29" y2="7.18" gradientUnits="userSpaceOnUse"><stop offset="0" stop-color="#2a3fdd"/><stop offset="1" stop-color="#00fbfd"/></linearGradient><linearGradient id="Degradado_sin_nombre_35-2" x1="4.49" y1="14.61" x2="29.08" y2="14.61" xlink:href="#Degradado_sin_nombre_35"/><linearGradient id="Degradado_sin_nombre_35-3" x1="4.49" y1="21.42" x2="29.32" y2="21.42" xlink:href="#Degradado_sin_nombre_35"/><linearGradient id="Degradado_sin_nombre_35-4" x1="4.56" y1="14.17" x2="29.24" y2="14.17" xlink:href="#Degradado_sin_nombre_35"/><linearGradient id="Degradado_sin_nombre_35-5" x1="4.2" y1="36.28" x2="29.24" y2="36.28" xlink:href="#Degradado_sin_nombre_35"/><linearGradient id="Degradado_sin_nombre_35-6" x1="4.49" y1="35.98" x2="29.32" y2="35.98" xlink:href="#Degradado_sin_nombre_35"/><linearGradient id="Degradado_sin_nombre_35-7" x1="4.12" y1="29.16" x2="29.08" y2="29.16" xlink:href="#Degradado_sin_nombre_35"/><linearGradient id="Degradado_sin_nombre_35-8" x1="4.56" y1="28.69" x2="29.01" y2="28.69" xlink:href="#Degradado_sin_nombre_35"/><linearGradient id="Degradado_sin_nombre_35-9" x1="4.21" y1="43.41" x2="29" y2="43.41" xlink:href="#Degradado_sin_nombre_35"/><linearGradient id="Degradado_sin_nombre_35-10" x1="4.57" y1="21.73" x2="29" y2="21.73" xlink:href="#Degradado_sin_nombre_35"/><linearGradient id="Degradado_sin_nombre_35-11" x1="29.04" y1="14.61" x2="51.36" y2="14.61" xlink:href="#Degradado_sin_nombre_35"/><linearGradient id="Degradado_sin_nombre_35-12" x1="28.88" y1="21.73" x2="51.28" y2="21.73" xlink:href="#Degradado_sin_nombre_35"/><linearGradient id="Degradado_sin_nombre_35-13" x1="29.12" y1="28.85" x2="51.28" y2="28.85" xlink:href="#Degradado_sin_nombre_35"/><linearGradient id="Degradado_sin_nombre_35-14" x1="28.8" y1="35.83" x2="51.36" y2="35.83" xlink:href="#Degradado_sin_nombre_35"/><linearGradient id="Degradado_sin_nombre_35-15" x1="653.99" y1="369.5" x2="663.24" y2="369.5" xlink:href="#Degradado_sin_nombre_35"/><linearGradient id="Degradado_sin_nombre_35-16" x1="653.99" y1="384.5" x2="663.24" y2="384.5" xlink:href="#Degradado_sin_nombre_35"/><linearGradient id="Degradado_sin_nombre_35-17" x1="653.99" y1="399.36" x2="663.24" y2="399.36" xlink:href="#Degradado_sin_nombre_35"/><linearGradient id="Degradado_sin_nombre_35-18" x1="698.4" y1="384.5" x2="712.01" y2="384.5" xlink:href="#Degradado_sin_nombre_35"/><linearGradient id="Degradado_sin_nombre_35-19" x1="679.12" y1="377.38" x2="686.75" y2="377.38" xlink:href="#Degradado_sin_nombre_35"/><linearGradient id="Degradado_sin_nombre_35-20" x1="679.12" y1="363.13" x2="686.75" y2="363.13" xlink:href="#Degradado_sin_nombre_35"/><linearGradient id="Degradado_sin_nombre_35-21" x1="679.12" y1="391.62" x2="686.75" y2="391.62" xlink:href="#Degradado_sin_nombre_35"/><linearGradient id="Degradado_sin_nombre_35-22" x1="679.12" y1="405.87" x2="686.75" y2="405.87" xlink:href="#Degradado_sin_nombre_35"/></defs><title>trained</title><polygon class="cls-1" points="4.67 10.64 4.57 10.23 28.89 3.71 29 4.13 4.67 10.64"/><polygon class="cls-2" points="4.76 25.45 4.49 25.13 28.81 3.76 29.08 4.08 4.76 25.45"/><polygon class="cls-3" points="29.05 32.58 4.49 10.59 4.76 10.27 29.32 32.26 29.05 32.58"/><polygon class="cls-4" points="29.12 18.37 4.56 10.38 4.69 9.97 29.25 17.96 29.12 18.37"/><polygon class="cls-5" points="4.32 40.35 4.2 39.95 29.12 32.21 29.24 32.62 4.32 40.35"/><polygon class="cls-6" points="29.05 46.83 4.49 25.45 4.76 25.13 29.32 46.5 29.05 46.83"/><polygon class="cls-7" points="4.4 40.31 4.12 39.99 28.81 18.01 29.08 18.33 4.4 40.31"/><polygon class="cls-8" points="28.89 32.72 4.56 25.07 4.68 24.66 29 32.31 28.89 32.72"/><polygon class="cls-9" points="28.89 46.87 4.21 40.36 4.31 39.95 29 46.46 28.89 46.87"/><polygon class="cls-10" points="4.68 25.5 4.57 25.09 28.89 17.96 29 18.37 4.68 25.5"/><polygon class="cls-11" points="51.07 25.45 29.04 4.08 29.32 3.77 51.36 25.14 51.07 25.45"/><polygon class="cls-12" points="51.16 25.49 28.88 18.37 29.01 17.96 51.28 25.09 51.16 25.49"/><polygon class="cls-13" points="29.25 32.62 29.12 32.21 51.16 25.09 51.28 25.49 29.25 32.62"/><polygon class="cls-14" points="29.09 46.52 28.8 46.21 51.08 25.14 51.36 25.45 29.09 46.52"/><path class="cls-15" d="M663.24,369.5a4.68,4.68,0,0,0-4.63-4.74h0A4.68,4.68,0,0,0,654,369.5h0a4.69,4.69,0,0,0,4.62,4.75h0a4.69,4.69,0,0,0,4.63-4.75Z" transform="translate(-653.99 -359.21)"/><path class="cls-16" d="M663.24,384.5a4.69,4.69,0,0,0-4.63-4.75h0A4.69,4.69,0,0,0,654,384.5h0a4.69,4.69,0,0,0,4.62,4.75h0a4.69,4.69,0,0,0,4.63-4.75Z" transform="translate(-653.99 -359.21)"/><path class="cls-17" d="M663.24,399.36a4.69,4.69,0,0,0-4.63-4.75h0a4.69,4.69,0,0,0-4.62,4.75h0a4.69,4.69,0,0,0,4.62,4.75h0a4.69,4.69,0,0,0,4.63-4.75Z" transform="translate(-653.99 -359.21)"/><path class="cls-18" d="M712,384.5a6.9,6.9,0,0,0-6.8-7h0a6.9,6.9,0,0,0-6.81,7h0a6.9,6.9,0,0,0,6.81,7h0a6.9,6.9,0,0,0,6.8-7Z" transform="translate(-653.99 -359.21)"/><path class="cls-19" d="M686.75,377.38a3.87,3.87,0,0,0-3.82-3.92h0a3.87,3.87,0,0,0-3.81,3.92h0a3.87,3.87,0,0,0,3.81,3.92h0a3.87,3.87,0,0,0,3.82-3.92Z" transform="translate(-653.99 -359.21)"/><path class="cls-20" d="M686.75,363.13a3.87,3.87,0,0,0-3.82-3.92h0a3.87,3.87,0,0,0-3.81,3.92h0a3.87,3.87,0,0,0,3.81,3.92h0a3.87,3.87,0,0,0,3.82-3.92Z" transform="translate(-653.99 -359.21)"/><path class="cls-21" d="M686.75,391.62a3.87,3.87,0,0,0-3.82-3.92h0a3.87,3.87,0,0,0-3.81,3.92h0a3.87,3.87,0,0,0,3.81,3.92h0a3.87,3.87,0,0,0,3.82-3.92Z" transform="translate(-653.99 -359.21)"/><path class="cls-22" d="M686.75,405.87a3.87,3.87,0,0,0-3.82-3.92h0a3.87,3.87,0,0,0-3.81,3.92h0a3.87,3.87,0,0,0,3.81,3.92h0a3.87,3.87,0,0,0,3.82-3.92Z" transform="translate(-653.99 -359.21)"/></svg>